<svg width="189" height="189" viewBox="0 0 189 189" fill="none" xmlns="http://www.w3.org/2000/svg">
<g clip-path="url(#clip0)">
<path d="M189 64.9691C189 100.85 159.912 129.938 124.031 129.938C119.889 129.938 115.84 129.545 111.913 128.805L103.05 138.777C102.218 139.712 101.199 140.46 100.057 140.973C98.916 141.485 97.6791 141.75 96.428 141.75H82.6875V156.516C82.6875 161.409 78.7211 165.375 73.8281 165.375H59.0625V180.141C59.0625 185.034 55.0961 189 50.2031 189H8.85938C3.96642 189 0 185.034 0 180.141V151.326C0 148.976 0.933557 146.723 2.59469 145.061L62.3224 85.3335C60.2098 78.9274 59.0625 72.0825 59.0625 64.9688C59.0625 29.0875 88.1497 0.000369144 124.031 3.52624e-09C160.018 -0.000369137 189 28.9816 189 64.9691ZM124.031 47.25C124.031 57.0359 131.964 64.9688 141.75 64.9688C151.536 64.9688 159.469 57.0359 159.469 47.25C159.469 37.4641 151.536 29.5312 141.75 29.5312C131.964 29.5312 124.031 37.4641 124.031 47.25Z" fill="white"/>
</g>
<defs>
<clipPath id="clip0">
<rect width="189" height="189" fill="white"/>
</clipPath>
</defs>
</svg>
